{
  "accessors": [
    {
      "bufferView": 2,
      "componentType": 5126,
      "count": 4983,
      "max": [
        28.399431228637695,
        4.8549575805664062,
        38.492576599121094
      ],
      "min": [
        -33.467941284179688,
        -21.520263671875,
        -20.547281265258789
      ],
      "type": "VEC3"
    },
    {
      "bufferView": 2,
      "byteOffset": 59796,
      "componentType": 5126,
      "count": 4983,
      "max": [
        0.99977689981460571,
        0.99961382150650024,
        1
      ],
      "min": [
        -0.99882388114929199,
        -0.99977076053619385,
        -1
      ],
      "type": "VEC3"
    },
    {
      "bufferView": 3,
      "componentType": 5126,
      "count": 4983,
      "max": [
        0.99833190441131592,
        0.99999958276748657,
        0.99995750188827515,
        1
      ],
      "min": [
        -0.99859225749969482,
        -0.99989855289459229,
        -0.99968051910400391,
        -1
      ],
      "type": "VEC4"
    },
    {
      "bufferView": 1,
      "componentType": 5126,
      "count": 4983,
      "max": [
        1.9689266681671143,
        0.95383024215698242
      ],
      "min": [
        0.0045702457427978516,
        0.012396782636642456
      ],
      "type": "VEC2"
    },
    {
      "bufferView": 1,
      "byteOffset": 39864,
      "componentType": 5126,
      "count": 4983,
      "max": [
        0.96553128957748413,
        0.97232562303543091
      ],
      "min": [
        0.042204640805721283,
        0.015823736786842346
      ],
      "type": "VEC2"
    },
    {
      "bufferView": 0,
      "componentType": 5125,
      "count": 20670,
      "max": [
        4982
      ],
      "min": [
        0
      ],
      "type": "SCALAR"
    }
  ],
  "asset": {
    "extras": {
      "author": "Joe (https://sketchfab.com/jhepic)",
      "license": "CC-BY-4.0 (http://creativecommons.org/licenses/by/4.0/)",
      "source": "https://sketchfab.com/models/abff5851ea734cbfa2d9a025425ae5b9",
      "title": "Camp fire"
    },
    "generator": "Sketchfab-4.32.0",
    "version": "2.0"
  },
  "bufferViews": [
    {
      "buffer": 0,
      "byteLength": 82680,
      "byteOffset": 0,
      "name": "floatBufferViews",
      "target": 34963
    },
    {
      "buffer": 0,
      "byteLength": 79728,
      "byteOffset": 82680,
      "byteStride": 8,
      "name": "floatBufferViews",
      "target": 34962
    },
    {
      "buffer": 0,
      "byteLength": 119592,
      "byteOffset": 162408,
      "byteStride": 12,
      "name": "floatBufferViews",
      "target": 34962
    },
    {
      "buffer": 0,
      "byteLength": 79728,
      "byteOffset": 282000,
      "byteStride": 16,
      "name": "floatBufferViews",
      "target": 34962
    }
  ],
  "buffers": [
    {
      "byteLength": 361728,
      "uri": "scene.bin"
    }
  ],
  "images": [
    {
      "uri": "textures/08_-_Default_metallicRoughness.png"
    },
    {
      "uri": "textures/08_-_Default_baseColor.jpeg"
    },
    {
      "uri": "textures/08_-_Default_emissive.jpeg"
    }
  ],
  "materials": [
    {
      "doubleSided": true,
      "emissiveFactor": [
        1,
        1,
        1
      ],
      "emissiveTexture": {
        "index": 2,
        "texCoord": 0
      },
      "name": "08_-_Default",
      "occlusionTexture": {
        "index": 0,
        "strength": 1,
        "texCoord": 0
      },
      "pbrMetallicRoughness": {
        "baseColorFactor": [
          1,
          1,
          1,
          1
        ],
        "baseColorTexture": {
          "index": 1,
          "texCoord": 0
        },
        "metallicFactor": 1,
        "metallicRoughnessTexture": {
          "index": 0,
          "texCoord": 0
        },
        "roughnessFactor": 1
      }
    }
  ],
  "meshes": [
    {
      "name": "Fire_Wood_2_low001_08 - Default_0",
      "primitives": [
        {
          "attributes": {
            "NORMAL": 1,
            "POSITION": 0,
            "TANGENT": 2,
            "TEXCOORD_0": 3,
            "TEXCOORD_1": 4
          },
          "indices": 5,
          "material": 0,
          "mode": 4
        }
      ]
    }
  ],
  "nodes": [
    {
      "children": [
        1
      ],
      "name": "RootNode (gltf orientation matrix)",
      "rotation": [
        -0.70710678118654746,
        -0,
        -0,
        0.70710678118654757
      ]
    },
    {
      "children": [
        2
      ],
      "name": "RootNode (model correction matrix)"
    },
    {
      "children": [
        3
      ],
      "matrix": [
        1,
        0,
        0,
        0,
        0,
        0,
        1,
        0,
        0,
        -1,
        0,
        0,
        0,
        0,
        0,
        1
      ],
      "name": "b24091863c044c28bf2f68e5953d3f36.fbx"
    },
    {
      "children": [
        4
      ],
      "name": "RootNode"
    },
    {
      "children": [
        5
      ],
      "matrix": [
        0.50786376708672776,
        0.41295117716494723,
        1.8755488657607748,
        0,
        -0.69693276516651015,
        1.8473987256207707,
        -0.21803674987087587,
        0,
        -1.7895521465216395,
        -0.60226795758726515,
        0.61718250999313318,
        0,
        0,
        0,
        0,
        1
      ],
      "name": "Fire_Wood_2_low001"
    },
    {
      "mesh": 0,
      "name": "Fire_Wood_2_low001_08 - Default_0"
    }
  ],
  "samplers": [
    {
      "magFilter": 9729,
      "minFilter": 9987,
      "wrapS": 10497,
      "wrapT": 10497
    }
  ],
  "scene": 0,
  "scenes": [
    {
      "name": "OSG_Scene",
      "nodes": [
        0
      ]
    }
  ],
  "textures": [
    {
      "sampler": 0,
      "source": 0
    },
    {
      "sampler": 0,
      "source": 1
    },
    {
      "sampler": 0,
      "source": 2
    }
  ]
}

