{
  "accessors": [
    {
      "bufferView": 2,
      "componentType": 5126,
      "count": 1874,
      "max": [
        16.548164367675781,
        5.1526508331298828,
        21.050867080688477
      ],
      "min": [
        4.0542349815368652,
        -4.3142428398132324,
        -0.039792999625205994
      ],
      "type": "VEC3"
    },
    {
      "bufferView": 2,
      "byteOffset": 22488,
      "componentType": 5126,
      "count": 1874,
      "max": [
        1,
        0.99971586465835571,
        0.99691319465637207
      ],
      "min": [
        -1,
        -0.99994516372680664,
        -1
      ],
      "type": "VEC3"
    },
    {
      "bufferView": 1,
      "componentType": 5126,
      "count": 1874,
      "max": [
        0.98147499561309814,
        0.97609102725982666
      ],
      "min": [
        0.030587000772356987,
        0.38219401240348816
      ],
      "type": "VEC2"
    },
    {
      "bufferView": 0,
      "componentType": 5125,
      "count": 2820,
      "max": [
        1873
      ],
      "min": [
        0
      ],
      "type": "SCALAR"
    },
    {
      "bufferView": 2,
      "byteOffset": 44976,
      "componentType": 5126,
      "count": 1874,
      "max": [
        -3.4659829139709473,
        4.8104667663574219,
        21.053012847900391
      ],
      "min": [
        -15.95991325378418,
        -4.2856311798095703,
        0.07439500093460083
      ],
      "type": "VEC3"
    },
    {
      "bufferView": 2,
      "byteOffset": 67464,
      "componentType": 5126,
      "count": 1874,
      "max": [
        1,
        0.99971586465835571,
        0.99691319465637207
      ],
      "min": [
        -1,
        -0.99994516372680664,
        -1
      ],
      "type": "VEC3"
    },
    {
      "bufferView": 1,
      "byteOffset": 14992,
      "componentType": 5126,
      "count": 1874,
      "max": [
        0.98147499561309814,
        0.97987502813339233
      ],
      "min": [
        0.030587000772356987,
        0.38219401240348816
      ],
      "type": "VEC2"
    },
    {
      "bufferView": 0,
      "byteOffset": 11280,
      "componentType": 5125,
      "count": 2820,
      "max": [
        1873
      ],
      "min": [
        0
      ],
      "type": "SCALAR"
    },
    {
      "bufferView": 2,
      "byteOffset": 89952,
      "componentType": 5126,
      "count": 1972,
      "max": [
        -23.682565689086914,
        4.8765959739685059,
        20.910072326660156
      ],
      "min": [
        -36.176494598388672,
        -4.3496108055114746,
        0.07439500093460083
      ],
      "type": "VEC3"
    },
    {
      "bufferView": 2,
      "byteOffset": 113616,
      "componentType": 5126,
      "count": 1972,
      "max": [
        1,
        0.99984115362167358,
        0.98842602968215942
      ],
      "min": [
        -1,
        -0.99984115362167358,
        -1
      ],
      "type": "VEC3"
    },
    {
      "bufferView": 1,
      "byteOffset": 29984,
      "componentType": 5126,
      "count": 1972,
      "max": [
        0.78630101680755615,
        0.93739497661590576
      ],
      "min": [
        0,
        0
      ],
      "type": "VEC2"
    },
    {
      "bufferView": 0,
      "byteOffset": 22560,
      "componentType": 5125,
      "count": 3000,
      "max": [
        1971
      ],
      "min": [
        0
      ],
      "type": "SCALAR"
    },
    {
      "bufferView": 2,
      "byteOffset": 137280,
      "componentType": 5126,
      "count": 2050,
      "max": [
        36.316997528076172,
        5.2567110061645508,
        21.100719451904297
      ],
      "min": [
        24.257106781005859,
        -4.0811190605163574,
        0.07439500093460083
      ],
      "type": "VEC3"
    },
    {
      "bufferView": 2,
      "byteOffset": 161880,
      "componentType": 5126,
      "count": 2050,
      "max": [
        1,
        0.99988186359405518,
        0.99479508399963379
      ],
      "min": [
        -1,
        -0.99309253692626953,
        -1
      ],
      "type": "VEC3"
    },
    {
      "bufferView": 1,
      "byteOffset": 45760,
      "componentType": 5126,
      "count": 2050,
      "max": [
        0.98538500070571899,
        0.97609102725982666
      ],
      "min": [
        0.030587000772356987,
        0.38219401240348816
      ],
      "type": "VEC2"
    },
    {
      "bufferView": 0,
      "byteOffset": 34560,
      "componentType": 5125,
      "count": 3030,
      "max": [
        2049
      ],
      "min": [
        0
      ],
      "type": "SCALAR"
    }
  ],
  "asset": {
    "extras": {
      "author": "micaelsampaio (https://sketchfab.com/micaelsampaio)",
      "license": "CC-BY-4.0 (http://creativecommons.org/licenses/by/4.0/)",
      "source": "https://sketchfab.com/3d-models/low-poly-characters-pack-f1c8018af59643e0b009a6f018ed9fd9",
      "title": "Low Poly Characters (PACK)"
    },
    "generator": "Sketchfab-9.94.0",
    "version": "2.0"
  },
  "bufferViews": [
    {
      "buffer": 0,
      "byteLength": 46680,
      "byteOffset": 0,
      "name": "floatBufferViews",
      "target": 34963
    },
    {
      "buffer": 0,
      "byteLength": 62160,
      "byteOffset": 46680,
      "byteStride": 8,
      "name": "floatBufferViews",
      "target": 34962
    },
    {
      "buffer": 0,
      "byteLength": 186480,
      "byteOffset": 108840,
      "byteStride": 12,
      "name": "floatBufferViews",
      "target": 34962
    }
  ],
  "buffers": [
    {
      "byteLength": 295320,
      "uri": "scene.bin"
    }
  ],
  "extensionsUsed": [
    "KHR_materials_unlit"
  ],
  "images": [
    {
      "uri": "textures/null_baseColor.png"
    },
    {
      "uri": "textures/material_baseColor.png"
    },
    {
      "uri": "textures/Girl_baseColor.png"
    },
    {
      "uri": "textures/Santa_baseColor.png"
    }
  ],
  "materials": [
    {
      "doubleSided": true,
      "extensions": {
        "KHR_materials_unlit": {}
      },
      "name": "null",
      "pbrMetallicRoughness": {
        "baseColorFactor": [
          1,
          1,
          1,
          1
        ],
        "baseColorTexture": {
          "index": 0,
          "texCoord": 0
        },
        "metallicFactor": 0,
        "roughnessFactor": 1
      }
    },
    {
      "doubleSided": true,
      "emissiveFactor": [
        0,
        0,
        0
      ],
      "extensions": {
        "KHR_materials_unlit": {}
      },
      "name": "material",
      "pbrMetallicRoughness": {
        "baseColorFactor": [
          1,
          1,
          1,
          1
        ],
        "baseColorTexture": {
          "index": 1,
          "texCoord": 0
        },
        "metallicFactor": 0,
        "roughnessFactor": 1
      }
    },
    {
      "doubleSided": true,
      "emissiveFactor": [
        0,
        0,
        0
      ],
      "extensions": {
        "KHR_materials_unlit": {}
      },
      "name": "Girl",
      "pbrMetallicRoughness": {
        "baseColorFactor": [
          1,
          1,
          1,
          1
        ],
        "baseColorTexture": {
          "index": 2,
          "texCoord": 0
        },
        "metallicFactor": 0,
        "roughnessFactor": 1
      }
    },
    {
      "doubleSided": true,
      "emissiveFactor": [
        0,
        0,
        0
      ],
      "extensions": {
        "KHR_materials_unlit": {}
      },
      "name": "Santa",
      "pbrMetallicRoughness": {
        "baseColorFactor": [
          1,
          1,
          1,
          1
        ],
        "baseColorTexture": {
          "index": 3,
          "texCoord": 0
        },
        "metallicFactor": 0,
        "roughnessFactor": 1
      }
    }
  ],
  "meshes": [
    {
      "primitives": [
        {
          "attributes": {
            "NORMAL": 1,
            "POSITION": 0,
            "TEXCOORD_0": 2
          },
          "indices": 3,
          "material": 1,
          "mode": 4
        }
      ]
    },
    {
      "primitives": [
        {
          "attributes": {
            "NORMAL": 5,
            "POSITION": 4,
            "TEXCOORD_0": 6
          },
          "indices": 7,
          "material": 3,
          "mode": 4
        }
      ]
    },
    {
      "primitives": [
        {
          "attributes": {
            "NORMAL": 9,
            "POSITION": 8,
            "TEXCOORD_0": 10
          },
          "indices": 11,
          "material": 0,
          "mode": 4
        }
      ]
    },
    {
      "primitives": [
        {
          "attributes": {
            "NORMAL": 13,
            "POSITION": 12,
            "TEXCOORD_0": 14
          },
          "indices": 15,
          "material": 2,
          "mode": 4
        }
      ]
    }
  ],
  "nodes": [
    {
      "children": [
        1
      ],
      "name": "RootNode (gltf orientation matrix)",
      "rotation": [
        -0.70710678118654746,
        -0,
        -0,
        0.70710678118654757
      ]
    },
    {
      "children": [
        2
      ],
      "name": "RootNode (model correction matrix)"
    },
    {
      "children": [
        3,
        4,
        5,
        6
      ],
      "name": "characters pack.obj.cleaner.materialmerger.gles"
    },
    {
      "mesh": 0,
      "name": ""
    },
    {
      "mesh": 1,
      "name": ""
    },
    {
      "mesh": 2,
      "name": ""
    },
    {
      "mesh": 3,
      "name": ""
    }
  ],
  "samplers": [
    {
      "magFilter": 9729,
      "minFilter": 9987,
      "wrapS": 10497,
      "wrapT": 10497
    }
  ],
  "scene": 0,
  "scenes": [
    {
      "name": "OSG_Scene",
      "nodes": [
        0
      ]
    }
  ],
  "textures": [
    {
      "sampler": 0,
      "source": 0
    },
    {
      "sampler": 0,
      "source": 1
    },
    {
      "sampler": 0,
      "source": 2
    },
    {
      "sampler": 0,
      "source": 3
    }
  ]
}

